<svg width="480" height="418" viewBox="0 0 480 418" xmlns="http://www.w3.org/2000/svg" font-family="-apple-system, 'Helvetica Neue', Arial, sans-serif">
<rect x="0" y="0" width="480" height="418" fill="#ececec"/>
<rect x="0" y="0" width="480" height="28" fill="#e4e4e6"/>
<line x1="0" y1="28" x2="480" y2="28" stroke="#c9c9cb" stroke-width="1"/>
<circle cx="20" cy="14" r="6" fill="#ff5f57"/>
<circle cx="40" cy="14" r="6" fill="#febc2e"/>
<circle cx="60" cy="14" r="6" fill="#28c840"/>
<text x="240.0" y="18" font-size="12.5" fill="#1c1c1e" text-anchor="middle" font-weight="600">Settings</text>
<text x="24" y="48" font-size="11.5" fill="#6e6e73">Preferences</text>
<rect x="24" y="62" width="432" height="170" rx="9" fill="#ffffff" stroke="#d4d4d6" stroke-width="1"/>
<text x="38" y="92.0" font-size="13" fill="#1c1c1e" text-anchor="start" font-weight="400">Launch at login</text>
<rect x="406" y="78.0" width="36" height="20" rx="10" fill="#d1d1d6"/>
<circle cx="416" cy="88.0" r="8" fill="#ffffff" stroke="#c6c6c8" stroke-width="0.5"/>
<line x1="38" y1="102" x2="442" y2="102" stroke="#e5e5e7" stroke-width="1"/>
<text x="38" y="120.0" font-size="13" fill="#1c1c1e" text-anchor="start" font-weight="400">Auto-connect</text>
<rect x="406" y="106.0" width="36" height="20" rx="10" fill="#0a72e0"/>
<circle cx="432" cy="116.0" r="8" fill="#ffffff" stroke="#c6c6c8" stroke-width="0.5"/>
<line x1="38" y1="130" x2="442" y2="130" stroke="#e5e5e7" stroke-width="1"/>
<text x="38" y="151.0" font-size="13" fill="#1c1c1e" text-anchor="start" font-weight="400">Brightness</text>
<line x1="164" y1="147.0" x2="398" y2="147.0" stroke="#d1d1d6" stroke-width="4" stroke-linecap="round"/>
<line x1="164" y1="147.0" x2="237.89473684210526" y2="147.0" stroke="#0a72e0" stroke-width="4" stroke-linecap="round"/>
<circle cx="237.89473684210526" cy="147.0" r="8" fill="#ffffff" stroke="#b8b8ba" stroke-width="1"/>
<text x="442" y="151.0" font-size="13" fill="#1c1c1e" text-anchor="end" font-weight="400">35%</text>
<line x1="38" y1="181.0" x2="442" y2="181.0" stroke="#e5e5e7" stroke-width="1"/>
<text x="38" y="199.0" font-size="13" fill="#1c1c1e" text-anchor="start" font-weight="400">Sleep after</text>
<rect x="426" y="186.0" width="16" height="18" rx="4" fill="#ffffff" stroke="#c2c2c4" stroke-width="1"/>
<line x1="426" y1="195.0" x2="442" y2="195.0" stroke="#c2c2c4" stroke-width="1"/>
<path d="M 430 190.0 L 434 186.0 L 438 190.0" stroke="#6e6e73" stroke-width="1.3" fill="none" stroke-linecap="round" stroke-linejoin="round"/>
<path d="M 430 200.0 L 434 204.0 L 438 200.0" stroke="#6e6e73" stroke-width="1.3" fill="none" stroke-linecap="round" stroke-linejoin="round"/>
<text x="416" y="199.0" font-size="13" fill="#1c1c1e" text-anchor="end" font-weight="400">5 min</text>
<line x1="38" y1="209.0" x2="442" y2="209.0" stroke="#e5e5e7" stroke-width="1"/>
<text x="38" y="227.0" font-size="13" fill="#1c1c1e" text-anchor="start" font-weight="400">Panel off after</text>
<rect x="426" y="214.0" width="16" height="18" rx="4" fill="#ffffff" stroke="#c2c2c4" stroke-width="1"/>
<line x1="426" y1="223.0" x2="442" y2="223.0" stroke="#c2c2c4" stroke-width="1"/>
<path d="M 430 218.0 L 434 214.0 L 438 218.0" stroke="#6e6e73" stroke-width="1.3" fill="none" stroke-linecap="round" stroke-linejoin="round"/>
<path d="M 430 228.0 L 434 232.0 L 438 228.0" stroke="#6e6e73" stroke-width="1.3" fill="none" stroke-linecap="round" stroke-linejoin="round"/>
<text x="416" y="227.0" font-size="13" fill="#1c1c1e" text-anchor="end" font-weight="400">10 min</text>
<text x="24" y="252" font-size="11.5" fill="#6e6e73">Status</text>
<rect x="24" y="266" width="432" height="126" rx="9" fill="#ffffff" stroke="#d4d4d6" stroke-width="1"/>
<circle cx="42" cy="295" r="5" fill="#b0b0b3"/>
<text x="54" y="293" font-size="12.5" fill="#1c1c1e" text-anchor="start" font-weight="600">Device</text>
<text x="54" y="308" font-size="10.5" fill="#6e6e73" text-anchor="start" font-weight="400">Not connected</text>
<g opacity="1">
<rect x="372" y="286.0" width="70" height="24" rx="6" fill="#ffffff" stroke="#c2c2c4" stroke-width="1"/>
<text x="407.0" y="302" font-size="12" fill="#1c1c1e" text-anchor="middle">Rescan</text>
</g>
<line x1="38" y1="312" x2="442" y2="312" stroke="#e5e5e7" stroke-width="1"/>
<circle cx="42" cy="329" r="5" fill="#6e6e73"/>
<text x="54" y="327" font-size="12.5" fill="#1c1c1e" text-anchor="start" font-weight="600">Plugin</text>
<text x="54" y="342" font-size="10.5" fill="#6e6e73" text-anchor="start" font-weight="400">Plugin not installed</text>
<g opacity="1">
<rect x="362" y="320.0" width="80" height="24" rx="6" fill="#0a72e0" stroke="#0a72e0" stroke-width="1"/>
<text x="402.0" y="336" font-size="12" fill="#ffffff" text-anchor="middle">Install</text>
</g>
<line x1="38" y1="346" x2="442" y2="346" stroke="#e5e5e7" stroke-width="1"/>
<text x="54" y="365" font-size="10" fill="#6e6e73" text-anchor="start" font-weight="400">Claude Mascot has moved since the plugin was installed.</text>
<g opacity="1">
<rect x="352" y="351.0" width="90" height="24" rx="6" fill="#ffffff" stroke="#c2c2c4" stroke-width="1"/>
<text x="397.0" y="367" font-size="12" fill="#1c1c1e" text-anchor="middle">Re-register</text>
</g>
</svg>